<svg width="95" height="28" viewBox="0 0 95 28" fill="none" xmlns="http://www.w3.org/2000/svg">
<path d="M5.42812 9.39933L8.91177 7.39024L6.96725 4.02409H25.2549L16.114 19.862L14.1695 16.49L10.6859 18.505L16.114 27.9044L32.2221 0H0L5.42812 9.39933Z" fill="black"/>
<path d="M44.736 21.488C43.68 22.76 42.072 23.408 40.152 23.408C36.36 23.408 34.056 20.96 34.056 17.408C34.056 13.88 36.384 11.432 40.152 11.432C41.976 11.432 43.728 12.128 44.784 13.4L42.888 15.392C42.12 14.552 41.28 14.216 40.152 14.216C38.544 14.216 37.152 15.512 37.152 17.408C37.152 19.472 38.448 20.624 40.152 20.624C41.16 20.624 42.312 20.24 42.936 19.448L44.736 21.488Z" fill="black"/>
<path d="M79.8837 10.06L71.3837 12.9599L63.8837 21.56L92.7367 26.06L55.308 24L60.8837 21.1199L67.3837 12.9599L36.3837 7.55997L79.8837 10.06Z" fill="black"/>
<path d="M52.476 14.384C50.748 14.384 49.5 15.704 49.5 17.504C49.5 19.28 50.748 20.6 52.476 20.6C54.156 20.6 55.308 19.352 55.308 17.504C55.308 15.632 54.156 14.384 52.476 14.384ZM46.7732 17.624C46.7732 13.976 49.5 11.528 52.596 11.552C55.308 11.573 58.2732 14.432 58.2732 17.624C58.2732 21.224 55.308 23.528 52.596 23.432C49.884 23.336 46.7732 21.808 46.7732 17.624Z" fill="black"/>
<path d="M84.8831 21.56C84 22.5 81.9551 23.408 80.2031 23.408C76.3871 23.408 74.2511 20.792 74.2511 17.408C74.2511 13.952 76.3631 11.432 80.0831 11.432C83.7791 11.432 85.8911 13.952 85.8911 17.408C85.8911 17.792 85.8911 18.032 85.8671 18.368H77.3711C77.5391 19.784 78.5951 20.672 80.2031 20.672C81.3551 20.672 85.2191 20.744 85.8911 20L84.8831 21.56ZM77.4191 16.304H82.6991C82.5551 15.032 81.4991 14.168 80.0831 14.168C78.6671 14.168 77.5391 15.032 77.4191 16.304Z" fill="black"/>
<path d="M94.1769 14.72C93.5529 14.504 93.0009 14.432 92.3529 14.432C91.9209 14.432 91.5609 14.456 91.2249 14.6V23.168H88.1289V12.392C89.0649 11.912 90.6729 11.576 92.2329 11.576C92.9049 11.576 94.1049 11.648 94.8249 11.912L94.1769 14.72Z" fill="black"/>
</svg>
